<?xml version="1.0" encoding="utf-8"?>
<!-- Generator: Adobe Illustrator 20.1.0, SVG Export Plug-In . SVG Version: 6.00 Build 0)  -->
<svg version="1.1" xmlns="http://www.w3.org/2000/svg" xmlns:xlink="http://www.w3.org/1999/xlink" x="0px" y="0px"
	 viewBox="0 0 200 200" style="enable-background:new 0 0 200 200;" xml:space="preserve">
<style type="text/css">
	.st0{display:none;}
</style>
<g id="color">
	
		<image style="overflow:visible;" width="800" height="435" xlink:href="Blue1.png"  transform="matrix(0.2483 0 0 0.4555 -2.7318 1.8701)">
	</image>
	<path d="M170.3,80.3c-2.8-5.6-18-32.7-24.3-35.8c-6.2-3.1-29.2-9-32.3-8.5c-3.1,0.4-22.3,3.9-25.2,3.2c0,0-20.2-2.2-25.4-1.6
		c-4.7,0.5-26.9,12.2-28.8,15.3c-1.8,3.1-3.1,14.9-4.6,16.2S19.6,80,18.3,82.1S13,100,13.6,104.5c0.7,5.4,9.6,22.4,14.6,25.2
		c5,2.8,8.7,1.2,11.5,2.5s6.5,10.6,9,11.5s20.5,0,20.2,2.2c-0.3,2.2-2.4,13.9-1.1,18c1.4,4.2,7.3,0.9,9.5,0
		c2.2-0.9,11.3-9.3,13.4-13.1c2.1-3.7,8.5-19.9,10.6-19.3c2.1,0.6,14.2,5.9,16.7,5.3c2.5-0.6,16.5-3.7,20.2-5.9s4.7-11.2,6.5-11.2
		c1.9,0,6.5,1.6,8.1,0.6c1.6-0.9,16.2-8.4,17.4-11.2S173.1,85.9,170.3,80.3z M38.7,56.5c2.1-2,17.8-12.5,25.8-13.7
		c8.1-1.2,21.8,0.2,23.2,1.6c1.2,1.2,6.7,13.1,5.1,13.1s-9.1,1.3-10.4,5.7c-0.8,2.7,0.5,7.7,2.2,8.7s8.9,3.3,10.3,1.6
		s2.6-2.2,2.6-2.2s5.2,13.6,3.3,13.7c-1.6,0.1-12.1,0.8-15.3,0.7c-0.6,0-1.6-0.4-1.8,0.2c-0.3,0.9-0.7,2.3-0.1,3.2
		c0.9,1.4,4,4.6,3.4,5.8c-0.7,1.2-2,4.2-3.4,4.9c-2.1,1.1-5.9-1.1-6-3.5c-0.1-2.4,1.7-5.1,1.3-6.7s-1.3-3.4-2.1-3.4
		s-9.2,4.9-10.8,4.4s-13.9-8.4-14.8-7.8c-0.9,0.6-1.1,1.6-1.2,3.9s0.3,7.6-5.7,7.5c-6-0.1-5.7-5-4.6-6.6c1.1-1.6,5-4.2,5.2-4.8
		c0.2-0.7,0.3-3.7,0.3-3.7s-10.9-6-11-7.8S36.6,58.5,38.7,56.5z M33.2,126.4c-4.6-2.6-11.6-12.4-13.9-18c-2.3-5.6,0-15.4,1.4-20.2
		c1.4-4.8,7.5-12.4,10.2-13.9C33.6,72.7,42,81,42,81s-1.3,2-3.1,2.7s-2.3,7.4-1.7,10s4.8,3.3,8.9,3.2c4.1-0.1,5.1-2.3,6.7-4
		c1.7-1.7,1.3-4.6,1.8-5.8c0.5-1.2,10.8,5.6,10.8,5.6s0.5,7.6,0.5,9.2c0,1.6,6.4,12.5,6.6,14.7s-5.4,2.3-6.6,2.5s-0.3-5.1-1.1-6.6
		s-3.9-3.3-5.5-3.7c-1.6-0.4-5.5,0.8-8.4,2.5c-2.9,1.7-1.8,7.5-0.4,9.3c1.9,2.5,8.5,4.4,2.3,6.5C50.2,127.9,37.8,128.9,33.2,126.4z
		 M83.1,153.8c-3.5,5.4-9.5,10.1-11.1,8.4c-1.6-1.7,2.9-13.3,3.5-16.2c0.6-2.8-3.6-5-3.6-5s-6.8,0.6-15.1,0c-8.3-0.6-9.2-8-10.4-9.6
		c-1.2-1.5,8.8-2.5,10.1-3.8c0.7-0.7,1.4-1.7,1.9-2.4c0.5-0.7,0.2-1.6-0.5-2c-0.4-0.2-1.2-0.2-1.9-0.8c-2.5-1.9-3.8-5.4-3.8-6.4
		s1.3-3.5,3.3-4.4c2-0.9,4.5-0.4,7.4,2.7c2.9,3.1-1,5.4-0.3,7.6c0.7,2.2,3.1,1.2,6,0.4s5-3.7,6.8-4.2c1.8-0.5,3.7,3.3,3.7,3.3
		s-2,2.4-4.6,5.8c-2.7,3.3,1.9,8.8,2.5,9.3c0.6,0.5,4,1.5,8.3,0.5c4.2-1,5.1-5.5,5.1-5.5s0.1-2.3,1.3-4.4c1.2-2.1,3.6,0.6,4.1,2.8
		C96.1,132,86.6,148.4,83.1,153.8z M133,128.9c-7,3.1-14.9,3.5-21.8,1.6c-7-1.9-17.7-7.8-19.7-7.6s-4.2,0-4,2.1
		c0.2,2.1,1.6,6.4-0.5,7.6c-2.1,1.2-8.1,2.8-9-0.6s-0.4-6.6,1.7-7.5c2.1-0.8,4.7-2.2,4.3-3.8c-0.4-1.6-9-5.8-10.4-10.7
		c-1.5-4.9-5.6-14.3-4.3-16.2c1.3-1.9,5.7-1.7,5.7-1.7s0.1,5.6,1.1,7.2c0.9,1.6,5.1,4,7.4,4s6.4-3.9,6.4-5.4c0-1.2-0.5-6.8-1.3-9
		c-0.1-0.4,1.6-0.7,2-0.6l13.8,0.4c0,0,13.5,12.1,15.1,11.2c1.6-0.9,3.5-1.5,3.5-3.2s-0.1-4.8,1.9-6s5.3-1.7,6.6-0.4
		c1,1,4.1,4.9-0.1,7.7c-2.8,1.9-4.3,2.2-4.9,2.3c-0.4,0-0.7,0.3-0.8,0.7c-0.1,0.4-0.2,1-0.1,2c0.2,2.5,14.7,12.4,14.7,12.4
		S139.9,125.8,133,128.9z M165.4,107c-3.9,3.4-10.9,10.6-15.1,9.4c-3.8-1-17-10.4-19.7-12.3c-0.2-0.2-0.2-0.5,0-0.6
		c1.5-1,5.8-4.2,5-8.5c-1-5.2-2.6-8.8-7.2-8.8c-4.6,0-6.4,1.9-6.4,1.9s-3.2,6.1-2.7,7.6c0.5,1.5-13.5-9.8-13.5-9.8s-2.8-18.5-5.7-19
		c-2.9-0.5-4.4-0.3-4.4-0.3s0.7,4.4-2.9,4.7s-8.3-0.3-8.2-3.6c0.2-3.3,0.2-6,3.4-6.7c3.3-0.7,5.7,0.8,5.7,0.8s4.1,1.1,4.1-1.5
		c0-2.2-4.1-13.1-5.3-16.3c-0.2-0.5,0.1-1,0.6-1.1c4-0.6,19.3-2.8,28.5-0.7c10.6,2.4,19.5,5.2,25.2,11.1s17.2,20.3,19.4,29
		C168.3,90.9,169.3,103.5,165.4,107z"/>
</g>
<g id="Layer_6">
</g>
<g id="Layer_1" class="st0">
	
		<image style="display:inline;overflow:visible;" width="400" height="300" xlink:href="brainpuzzle.jpg"  transform="matrix(0.8625 0 0 0.8625 -74.3763 -21.8278)">
	</image>
</g>
<g id="Linje1">
</g>
<g id="linje2">
</g>
<g id="linje3">
</g>
</svg>
